<svg xmlns="http://www.w3.org/2000/svg" version="1.0" width="300.000000pt" height="32.000000pt" viewBox="0 0 300.000000 32.000000" preserveAspectRatio="xMidYMid meet">
<metadata>
Created by potrace 1.10, written by Peter Selinger 2001-2011
</metadata>
<g transform="translate(0.000000,32.000000) scale(0.100000,-0.100000)" fill="#FFFFFF" stroke="none">
<path d="M88 290 c-30 -23 -40 -62 -26 -102 15 -41 42 -52 143 -58 76 -4 90 -8 93 -23 8 -39 -15 -47 -129 -47 l-109 0 0 -26 0 -26 126 4 c118 3 127 4 145 27 25 31 25 91 -1 119 -22 23 -54 31 -150 35 -60 2 -65 4 -68 26 -2 13 2 28 10 32 7 5 57 9 111 9 97 0 97 0 97 25 l0 25 -109 0 c-93 0 -112 -3 -133 -20z"/>
<path d="M380 256 c0 -97 35 -146 105 -146 23 0 25 -3 25 -50 0 -47 2 -50 25 -50 23 0 25 3 25 50 0 49 1 50 31 50 20 0 40 10 60 29 27 27 29 35 29 100 0 69 -1 71 -25 71 -24 0 -25 -3 -25 -59 0 -78 -13 -91 -91 -91 -90 0 -99 8 -99 85 l0 65 -30 0 c-30 0 -30 -1 -30 -54z"/>
<path d="M737 303 c-4 -3 -7 -71 -7 -150 l0 -143 31 0 31 0 -4 105 c-2 58 -3 105 -1 105 1 0 48 -47 104 -105 57 -58 110 -105 121 -105 17 0 18 11 18 150 l0 150 -25 0 -25 0 0 -107 0 -108 -103 108 c-93 99 -122 119 -140 100z"/>
<path d="M1119 291 c-23 -18 -24 -26 -24 -131 0 -148 2 -150 161 -150 l114 0 0 25 c0 24 -1 24 -107 27 l-108 3 0 95 0 95 108 3 c106 3 107 3 107 27 l0 25 -114 0 c-97 0 -117 -3 -137 -19z"/>
<path d="M1546 283 c3 -16 15 -82 27 -148 19 -103 25 -120 42 -123 16 -2 31 16 70 82 28 47 52 86 55 86 3 0 28 -39 55 -85 46 -78 73 -102 89 -77 3 5 14 60 26 123 11 63 23 126 26 142 5 25 3 27 -24 27 -29 0 -29 0 -41 -87 -7 -49 -14 -94 -17 -102 -3 -8 -24 18 -50 62 -29 48 -52 77 -63 77 -10 0 -35 -29 -63 -76 -52 -85 -49 -86 -69 44 -12 80 -13 82 -41 82 -25 0 -27 -3 -22 -27z"/>
<path d="M2061 293 c-63 -32 -76 -62 -79 -179 l-4 -104 26 0 c23 0 26 4 26 38 l0 37 97 -2 98 -1 -1 -36 c-1 -33 1 -36 28 -36 l29 0 -3 148 -3 147 -90 3 c-70 2 -97 -2 -124 -15z m169 -93 l0 -60 -100 0 c-93 0 -100 1 -100 20 0 64 49 99 143 100 l57 0 0 -60z"/>
<path d="M2385 160 c54 -108 80 -150 93 -150 12 0 38 41 90 145 39 80 72 147 72 150 0 3 -13 5 -28 5 -25 0 -32 -9 -82 -109 l-54 -110 -52 110 c-50 103 -54 109 -84 109 l-30 0 75 -150z"/>
<path d="M2674 286 c-3 -14 -4 -73 -2 -131 4 -143 7 -145 164 -145 l114 0 0 25 c0 24 -1 24 -107 27 l-108 3 -3 98 -3 97 111 0 110 0 0 25 0 25 -135 0 c-134 0 -135 0 -141 -24z"/>
<path d="M2750 160 l0 -30 85 0 85 0 0 30 0 30 -85 0 -85 0 0 -30z"/>
</g>
</svg>